#!OML:ASF E:\Style4\Style4.ASF
:FULLY-SPECIFIED
:DEGREES
798
root -0.578371 17.9439 -0.88715 7.17001 -31.5005 -4.70764
lowerback 9.88426 -0.618049 -8.62819
upperback 6.10484 -1.68631 -6.96415
thorax 0.900292 -1.01565 -2.28787
lowerneck -2.63513 5.74685 -4.32161
upperneck -0.598396 7.72101 -12.9617
head 0.649923 3.72362 -3.3019
rclavicle -1.43125e-014 9.54166e-014
rhumerus -38.0958 41.1001 -110.746
rradius 46.5823
rwrist -25.6693
rhand 4.06312 -2.69712
rfingers 7.12502
rthumb 29.476 -30.378
lclavicle -1.43125e-014 9.54166e-014
lhumerus -54.9381 -0.958848 75.4768
lradius 87.6387
lwrist -1.43149
lhand 13.606 50.9667
lfingers 7.12502
lthumb 38.5379 76.6175
rfemur -17.1811 17.154 25.0799
rtibia 22.6148
rfoot -11.8118 5.877
rtoes -8.60549
lfemur -11.4766 6.29946 -13.772
ltibia 30.7701
lfoot -28.7599 23.0126
ltoes -5.44388
799
root -0.614527 17.9374 -0.905825 7.26175 -31.1719 -4.94326
lowerback 9.88198 -0.431851 -8.68758
upperback 6.13861 -1.44675 -7.17972
thorax 0.929629 -0.896898 -2.50508
lowerneck -2.78285 5.57825 -4.27252
upperneck -0.509304 7.52279 -12.3215
head 0.665811 3.62424 -3.0896
rclavicle -1.59028e-014 -5.40694e-014
rhumerus -38.264 41.2399 -110.982
rradius 46.6536
rwrist -25.5278
rhand 4.17036 -2.65542
rfingers 7.12502
rthumb 29.5783 -30.3182
lclavicle -1.59028e-014 -5.40694e-014
lhumerus -54.8748 -1.10299 75.3971
lradius 88.6135
lwrist -2.67352
lhand 13.8514 51.1438
lfingers 7.12502
lthumb 38.7694 76.7295
rfemur -17.0825 16.9351 25.4881
rtibia 22.5305
rfoot -11.7747 5.79106
rtoes -8.78008
lfemur -11.6914 6.07451 -13.3637
ltibia 31.1098
lfoot -28.7541 22.8928
ltoes -5.43499
800
root -0.648879 17.9294 -0.923555 7.34187 -30.7149 -5.20411
lowerback 9.89766 -0.284465 -8.6668
upperback 6.19808 -1.25071 -7.38434
thorax 0.976273 -0.798298 -2.75179
lowerneck -2.97091 5.3901 -4.26052
upperneck -0.358093 7.30789 -11.6109
head 0.704236 3.51307 -2.84796
rclavicle -4.6118e-014 9.54166e-015
rhumerus -38.4461 41.4098 -111.267
rradius 46.7326
rwrist -25.6295
rhand 4.17821 -2.6945
rfingers 7.12502
rthumb 29.5858 -30.356
lclavicle -4.6118e-014 9.54166e-015
lhumerus -54.7826 -1.25762 75.3191
lradius 89.497
lwrist -3.86113
lhand 13.9546 51.3239
lfingers 7.12502
lthumb 38.8667 76.8819
rfemur -16.9508 16.5652 25.9375
rtibia 22.4268
rfoot -11.7679 5.74551
rtoes -8.87037
lfemur -11.926 5.84269 -12.9197
ltibia 31.4709
lfoot -28.6282 22.7804
ltoes -5.50738
801
root -0.68461 17.9199 -0.94026 7.38726 -30.2278 -5.48454
lowerback 9.96681 -0.114111 -8.65535
upperback 6.27864 -1.02947 -7.54094
thorax 1.01849 -0.688061 -2.94511
lowerneck -3.27969 5.17351 -4.4351
upperneck -0.126061 7.07532 -10.7288
head 0.774624 3.38792 -2.5166
rclavicle 6.36111e-015 1.20861e-013
rhumerus -38.6048 41.6375 -111.499
rradius 46.854
rwrist -25.9063
rhand 4.11509 -2.80331
rfingers 7.12502
rthumb 29.5256 -30.4755
lclavicle 6.36111e-015 1.20861e-013
lhumerus -54.591 -1.51008 75.348
lradius 90.1963
lwrist -4.98889
lhand 14.0872 51.4477
lfingers 7.12502
lthumb 38.9918 76.9701
rfemur -16.7494 16.1712 26.4277
rtibia 22.3003
rfoot -11.7649 5.67283
rtoes -9.13678
lfemur -12.1237 5.57883 -12.4536
ltibia 31.8608
lfoot -28.5292 22.7157
ltoes -5.72979
802
root -0.718862 17.9131 -0.954871 7.46219 -29.7021 -5.77643
lowerback 10.0178 0.0755132 -8.57172
upperback 6.34701 -0.774953 -7.68954
thorax 1.05738 -0.558643 -3.17321
lowerneck -3.54122 4.92252 -4.61076
upperneck 0.0959117 6.78871 -9.81127
head 0.832872 3.24054 -2.18161
rclavicle -7.4743e-014 7.63333e-014
rhumerus -38.7639 41.6768 -111.624
rradius 47.019
rwrist -26.0742
rhand 4.26278 -2.88663
rfingers 7.12502
rthumb 29.6665 -30.5338
lclavicle -7.4743e-014 7.63333e-014
lhumerus -54.3013 -1.84809 75.4492
lradius 90.8194
lwrist -6.15907
lhand 14.3814 51.4291
lfingers 7.12502
lthumb 39.2691 76.8716
rfemur -16.5637 15.8049 26.9039
rtibia 22.1516
rfoot -11.728 5.58473
rtoes -8.96111
lfemur -12.3685 5.17363 -11.9859
ltibia 32.2761
lfoot -28.579 22.6748
ltoes -6.07634
803
root -0.752034 17.9061 -0.970778 7.55954 -29.1473 -6.08304
lowerback 10.0743 0.26222 -8.46885
upperback 6.41548 -0.522615 -7.81859
thorax 1.09547 -0.429592 -3.39157
lowerneck -3.74387 4.64493 -4.75023
upperneck 0.230221 6.44961 -8.93731
head 0.858553 3.07439 -1.87558
rclavicle -1.11319e-014 -5.08889e-014
rhumerus -38.888 41.6461 -111.667
rradius 47.203
rwrist -26.1625
rhand 4.39689 -2.9905
rfingers 7.12502
rthumb 29.7945 -30.6148
lclavicle -1.11319e-014 -5.08889e-014
lhumerus -54.0328 -2.12611 75.5983
lradius 91.4798
lwrist -7.33397
lhand 14.5578 51.4602
lfingers 7.12502
lthumb 39.4352 76.8541
rfemur -16.4017 15.4764 27.381
rtibia 21.9915
rfoot -11.6732 5.42883
rtoes -8.52398
lfemur -12.6614 4.75236 -11.4916
ltibia 32.6952
lfoot -28.6204 22.5518
ltoes -6.23787
804
root -0.787339 17.8974 -0.988528 7.71061 -28.6356 -6.44678
lowerback 10.0884 0.444691 -8.39983
upperback 6.49517 -0.270641 -7.9114
thorax 1.17154 -0.302976 -3.55331
lowerneck -4.03527 4.384 -4.88519
upperneck 0.377571 6.13844 -8.03617
head 0.906938 2.92102 -1.56339
rclavicle -3.65764e-014 1.08139e-013
rhumerus -38.9449 41.7169 -111.73
rradius 47.3239
rwrist -26.2841
rhand 4.30381 -3.07686
rfingers 7.12502
rthumb 29.7057 -30.717
lclavicle -3.65764e-014 1.08139e-013
lhumerus -53.7561 -2.27762 75.7923
lradius 92.1267
lwrist -8.50801
lhand 14.4528 51.6137
lfingers 7.12502
lthumb 39.3364 77.0366
rfemur -16.2756 15.1425 27.914
rtibia 21.8
rfoot -11.5953 5.33983
rtoes -8.47577
lfemur -13.0195 4.47895 -10.9299
ltibia 33.1262
lfoot -28.4946 22.4635
ltoes -6.19796
805
root -0.822168 17.8891 -1.00441 7.8198 -28.0501 -6.77571
lowerback 10.0935 0.635508 -8.28069
upperback 6.6133 0.00133217 -8.04298
thorax 1.29512 -0.16545 -3.78677
lowerneck -4.37025 4.11174 -4.96966
upperneck 0.591316 5.81521 -7.05733
head 0.986291 2.76119 -1.23828
rclavicle -2.8625e-014 2.22639e-014
rhumerus -38.9343 41.7074 -111.775
rradius 47.4289
rwrist -26.4259
rhand 4.17575 -3.11745
rfingers 7.12502
rthumb 29.5835 -30.7793
lclavicle -2.8625e-014 2.22639e-014
lhumerus -53.3667 -2.51382 75.9481
lradius 92.7221
lwrist -9.63044
lhand 14.5111 51.7592
lfingers 7.12502
lthumb 39.3912 77.1661
rfemur -16.132 14.7593 28.4127
rtibia 21.6339
rfoot -11.5283 5.26948
rtoes -7.85735
lfemur -13.3793 4.14218 -10.3977
ltibia 33.5614
lfoot -28.3057 22.4788
ltoes -6.43578
806
root -0.853686 17.8813 -1.01852 7.92039 -27.3524 -7.10585
lowerback 10.1409 0.785631 -8.08189
upperback 6.73963 0.222165 -8.17251
thorax 1.40583 -0.0498023 -4.05809
lowerneck -4.70898 3.83537 -5.1195
upperneck 0.75581 5.48074 -6.01825
head 1.05145 2.60102 -0.888604
rclavicle -2.70347e-014 9.54166e-015
rhumerus -38.9007 41.6308 -111.773
rradius 47.5782
rwrist -26.5757
rhand 4.29041 -3.26677
rfingers 7.12502
rthumb 29.6929 -30.9092
lclavicle -2.70347e-014 9.54166e-015
lhumerus -52.9937 -2.72055 76.0473
lradius 93.3442
lwrist -10.7504
lhand 14.6545 51.8592
lfingers 7.12502
lthumb 39.5263 77.2264
rfemur -16.0022 14.3327 28.916
rtibia 21.5177
rfoot -11.513 5.12881
rtoes -7.38423
lfemur -13.7498 3.64842 -9.87037
ltibia 34.0032
lfoot -28.2599 22.4049
ltoes -6.55767
807
root -0.882074 17.8729 -1.03218 7.98729 -26.5735 -7.36902
lowerback 10.2274 0.889532 -7.93693
upperback 6.86824 0.374209 -8.26029
thorax 1.49875 0.0303876 -4.24933
lowerneck -5.05225 3.55061 -5.42176
upperneck 0.881978 5.13677 -4.93862
head 1.10631 2.4396 -0.505429
rclavicle 2.06736e-014 6.67916e-014
rhumerus -38.9171 41.6764 -111.729
rradius 47.748
rwrist -26.7161
rhand 4.378 -3.35343
rfingers 7.12502
rthumb 29.7765 -30.9809
lclavicle 2.06736e-014 6.67916e-014
lhumerus -52.6579 -2.83648 76.267
lradius 93.9578
lwrist -11.9511
lhand 14.7889 51.8952
lfingers 7.12502
lthumb 39.6529 77.225
rfemur -15.9146 13.8048 29.3615
rtibia 21.4246
rfoot -11.5465 4.97553
rtoes -7.1898
lfemur -14.1444 3.09979 -9.41355
ltibia 34.4266
lfoot -28.1115 22.3561
ltoes -6.96125
808
root -0.906064 17.8652 -1.0414 7.99797 -25.5961 -7.52553
lowerback 10.3336 0.91073 -7.79215
upperback 7.01104 0.418265 -8.33519
thorax 1.59496 0.0574199 -4.41747
lowerneck -5.28925 3.29103 -5.68683
upperneck 0.939367 4.81138 -3.91367
head 1.1316 2.29234 -0.148664
rclavicle 3.18055e-015 -8.5875e-014
rhumerus -38.9911 41.8761 -111.708
rradius 47.8724
rwrist -26.847
rhand 4.33207 -3.3817
rfingers 7.12502
rthumb 29.7327 -31.017
lclavicle 3.18055e-015 -8.5875e-014
lhumerus -52.3637 -2.88914 76.5526
lradius 94.5645
lwrist -13.259
lhand 15.0436 51.8062
lfingers 7.12502
lthumb 39.8927 77.0645
rfemur -15.8365 13.1231 29.705
rtibia 21.3315
rfoot -11.6144 4.74606
rtoes -7.07152
lfemur -14.5913 2.40707 -9.04956
ltibia 34.8283
lfoot -27.898 22.3206
ltoes -7.44661
809
root -0.934578 17.8583 -1.05112 8.02865 -24.8035 -7.75442
lowerback 10.3604 1.02279 -7.71481
upperback 7.12516 0.584229 -8.36591
thorax 1.70687 0.142194 -4.51075
lowerneck -5.37802 3.03414 -5.7754
upperneck 0.975251 4.46873 -3.05497
head 1.1395 2.13731 0.125291
rclavicle -2.06736e-014 -8.90555e-014
rhumerus -39.0866 42.0067 -111.678
rradius 47.9798
rwrist -26.9438
rhand 4.41103 -3.41523
rfingers 7.12502
rthumb 29.808 -31.0371
lclavicle -2.06736e-014 -8.90555e-014
lhumerus -52.1579 -2.99067 76.886
lradius 95.2473
lwrist -14.3902
lhand 15.287 51.7993
lfingers 7.12502
lthumb 40.1217 76.9885
rfemur -15.7466 12.636 30.1136
rtibia 21.2574
rfoot -11.6549 4.50647
rtoes -7.06787
lfemur -14.9658 1.90317 -8.60637
ltibia 35.2127
lfoot -27.7393 22.226
ltoes -8.02286
810
root -0.967807 17.8517 -1.06688 8.07232 -24.2458 -8.04286
lowerback 10.3838 1.2447 -7.73597
upperback 7.15372 0.877147 -8.366
thorax 1.73225 0.288148 -4.52685
lowerneck -5.1698 2.78464 -5.8294
upperneck 0.9427 4.10776 -2.19116
head 1.08023 1.97794 0.389039
rclavicle -6.52014e-014 -3.18055e-015
rhumerus -39.3369 42.0413 -111.739
rradius 48.1473
rwrist -27.1
rhand 4.49865 -3.54269
rfingers 7.12502
rthumb 29.8917 -31.1495
lclavicle -6.52014e-014 -3.18055e-015
lhumerus -52.0637 -3.21138 77.2818
lradius 95.8748
lwrist -15.2655
lhand 15.0816 51.8343
lfingers 7.12502
lthumb 39.9285 77.0819
rfemur -15.6528 12.355 30.5754
rtibia 21.1856
rfoot -11.635 4.34496
rtoes -7.04096
lfemur -15.2648 1.60871 -8.10686
ltibia 35.5869
lfoot -27.6538 22.0693
ltoes -8.27038
811
root -0.998432 17.844 -1.08341 8.16672 -23.4661 -8.32605
lowerback 10.4451 1.398 -7.65003
upperback 7.19038 1.08595 -8.35792
thorax 1.74391 0.396703 -4.5868
lowerneck -5.08176 2.52143 -5.97105
upperneck 0.963161 3.74293 -1.22545
head 1.06032 1.81431 0.704652
rclavicle 3.18055e-014 5.725e-014
rhumerus -39.5951 41.9823 -111.738
rradius 48.4191
rwrist -27.1902
rhand 4.51871 -3.73161
rfingers 7.12502
rthumb 29.9108 -31.335
lclavicle 3.18055e-014 5.725e-014
lhumerus -51.8671 -3.5147 77.6531
lradius 96.3363
lwrist -15.9883
lhand 14.6041 51.7637
lfingers 7.12502
lthumb 39.4789 77.1448
rfemur -15.6272 12.0835 31.02
rtibia 21.0995
rfoot -11.6351 3.93848
rtoes -7.12738
lfemur -15.7102 1.11368 -7.58469
ltibia 35.9547
lfoot -27.5556 21.8715
ltoes -8.14161
812
root -1.02505 17.8339 -1.09743 8.23193 -22.5214 -8.56329
lowerback 10.5077 1.51724 -7.45751
upperback 7.34651 1.27157 -8.38298
thorax 1.88521 0.495619 -4.74092
lowerneck -5.28056 2.22468 -5.98757
upperneck 0.997332 3.34725 -0.306614
head 1.1029 1.63321 0.992993
rclavicle -5.08889e-014 -4.77083e-014
rhumerus -39.6072 41.8394 -111.539
rradius 48.7328
rwrist -27.1994
rhand 4.55813 -3.86871
rfingers 7.12502
rthumb 29.9484 -31.4653
lclavicle -5.08889e-014 -4.77083e-014
lhumerus -51.3867 -3.87901 78.0076
lradius 96.6993
lwrist -16.6517
lhand 14.1716 51.6559
lfingers 7.12502
lthumb 39.0713 77.1555
rfemur -15.6159 11.788 31.4145
rtibia 21.0379
rfoot -11.6535 3.419
rtoes -7.24574
lfemur -16.1927 0.47304 -7.10223
ltibia 36.3213
lfoot -27.4866 21.6545
ltoes -8.65854
